<svg width="177" height="56" viewBox="0 0 177 56" fill="none" xmlns="http://www.w3.org/2000/svg">
<path d="M52.6982 39.9212L48.2572 24.2996L50.9128 24.2773L54.238 36.663L57.7194 24.2996H60.1519L63.544 36.663L66.8915 24.2996H69.5249L65.0392 39.9212H62.0488L58.8576 28.4281L55.7109 39.9212H52.6982ZM80.1899 37.8234H80.6809V39.9212H79.4089C77.8467 39.9212 77.3111 39.2294 77.3111 38.0912C76.5523 39.2517 75.3919 40.0551 73.5396 40.0551C71.0401 40.0551 69.2994 38.8277 69.2994 36.7076C69.2994 34.3644 70.9955 33.0477 74.1868 33.0477H77.0656V32.3559C77.0656 31.0838 76.1506 30.3027 74.5662 30.3027C73.1379 30.3027 72.1783 30.9722 71.9998 31.9765H69.6342C69.8797 29.7448 71.7989 28.3612 74.6777 28.3612C77.7128 28.3612 79.4535 29.8118 79.4535 32.5121V37.087C79.4535 37.6672 79.699 37.8234 80.1899 37.8234ZM77.0656 35.2347V34.833H74.0752C72.58 34.833 71.7543 35.3909 71.7543 36.5514C71.7543 37.511 72.5577 38.1805 73.8744 38.1805C75.8828 38.1805 77.0433 36.9977 77.0656 35.2347ZM90.6324 30.1242L90.9002 28.4951H92.9979V44.3845H90.5877V38.2251C89.829 39.2517 88.6462 40.0551 86.8832 40.0551C83.7812 40.0551 81.4826 37.8904 81.4826 34.2081C81.4826 30.7044 83.7812 28.3612 86.8832 28.3612C88.6685 28.3612 89.9182 29.0976 90.6324 30.1242ZM87.2849 38.0243C89.2934 38.0243 90.6101 36.4398 90.6101 34.2305C90.6101 31.9765 89.2934 30.4143 87.2849 30.4143C85.2764 30.4143 83.9597 31.9542 83.9597 34.2081C83.9597 36.4398 85.2764 38.0243 87.2849 38.0243ZM105.797 37.8234H106.288V39.9212H105.016C103.454 39.9212 102.919 39.2294 102.919 38.0912C102.16 39.2517 100.999 40.0551 99.147 40.0551C96.6476 40.0551 94.9069 38.8277 94.9069 36.7076C94.9069 34.3644 96.6029 33.0477 99.7942 33.0477H102.673V32.3559C102.673 31.0838 101.758 30.3027 100.174 30.3027C98.7453 30.3027 97.7857 30.9722 97.6072 31.9765H95.2416C95.4871 29.7448 97.4063 28.3612 100.285 28.3612C103.32 28.3612 105.061 29.8118 105.061 32.5121V37.087C105.061 37.6672 105.306 37.8234 105.797 37.8234ZM102.673 35.2347V34.833H99.6826C98.1874 34.833 97.3617 35.3909 97.3617 36.5514C97.3617 37.511 98.1651 38.1805 99.4818 38.1805C101.49 38.1805 102.651 36.9977 102.673 35.2347ZM113.381 28.4951H113.917V30.7491H112.846C110.703 30.7491 110.011 32.4228 110.011 34.1858V39.9212H107.601V28.4951H109.744L110.011 30.2135C110.592 29.2539 111.507 28.4951 113.381 28.4951ZM120.734 26.5535V24.2996H132.74V26.0626L123.992 37.6672H132.986V39.9212H120.488V38.1582L129.236 26.5535H120.734ZM144.96 37.8234H145.451V39.9212H144.179C142.617 39.9212 142.082 39.2294 142.082 38.0912C141.323 39.2517 140.162 40.0551 138.31 40.0551C135.811 40.0551 134.07 38.8277 134.07 36.7076C134.07 34.3644 135.766 33.0477 138.957 33.0477H141.836V32.3559C141.836 31.0838 140.921 30.3027 139.337 30.3027C137.908 30.3027 136.949 30.9722 136.77 31.9765H134.405C134.65 29.7448 136.569 28.3612 139.448 28.3612C142.483 28.3612 144.224 29.8118 144.224 32.5121V37.087C144.224 37.6672 144.469 37.8234 144.96 37.8234ZM141.836 35.2347V34.833H138.846C137.35 34.833 136.525 35.3909 136.525 36.5514C136.525 37.511 137.328 38.1805 138.645 38.1805C140.653 38.1805 141.814 36.9977 141.836 35.2347ZM146.764 39.9212V24.2996H149.174V34.0296L154.352 28.4951H157.186L152.879 33.1146L157.454 39.9212H154.597L151.227 34.8776L149.174 37.02V39.9212H146.764ZM168.715 37.8234H169.206V39.9212H167.934C166.372 39.9212 165.836 39.2294 165.836 38.0912C165.078 39.2517 163.917 40.0551 162.065 40.0551C159.566 40.0551 157.825 38.8277 157.825 36.7076C157.825 34.3644 159.521 33.0477 162.712 33.0477H165.591V32.3559C165.591 31.0838 164.676 30.3027 163.092 30.3027C161.663 30.3027 160.704 30.9722 160.525 31.9765H158.16C158.405 29.7448 160.324 28.3612 163.203 28.3612C166.238 28.3612 167.979 29.8118 167.979 32.5121V37.087C167.979 37.6672 168.224 37.8234 168.715 37.8234ZM165.591 35.2347V34.833H162.601C161.105 34.833 160.28 35.3909 160.28 36.5514C160.28 37.511 161.083 38.1805 162.4 38.1805C164.408 38.1805 165.569 36.9977 165.591 35.2347Z" fill="#021342"/>
<path d="M53.6217 53.2561V47.634H54.6658V52.3726H57.6054V53.2561H53.6217ZM60.5982 52.3806H63.7707V53.2561H59.5541V47.634H63.6582V48.5094H60.5982V49.9712H63.3129V50.8305H60.5982V52.3806ZM67.1995 53.2561V48.5174H65.3362V47.634H70.1069V48.5174H68.2436V53.2561H67.1995ZM72.4518 47.2404C72.8293 47.2404 73.1023 47.5135 73.1023 47.899C73.1023 48.0837 73.0702 48.2203 72.9256 48.5897L72.508 49.7302H71.8574L72.1787 48.4933C71.9538 48.405 71.8012 48.1962 71.8012 47.899C71.8012 47.5055 72.0823 47.2404 72.4518 47.2404ZM76.3996 53.3123C75.6848 53.3123 74.97 53.1035 74.5845 52.8304L74.97 52.0674C75.3475 52.3164 75.9257 52.4931 76.4639 52.4931C77.0983 52.4931 77.3634 52.3164 77.3634 52.0192C77.3634 51.2 74.713 51.971 74.713 50.2603C74.713 49.4491 75.4438 48.919 76.6004 48.919C77.1706 48.919 77.8212 49.0556 78.2067 49.2885L77.8212 50.0515C77.4116 49.8105 77.002 49.7302 76.5924 49.7302C75.982 49.7302 75.6928 49.931 75.6928 50.2121C75.6928 51.0795 78.3432 50.3085 78.3432 51.9871C78.3432 52.7902 77.6043 53.3123 76.3996 53.3123ZM87.6118 52.1316V50.3808H88.5997V52.6216C88.0134 53.0954 87.1941 53.3364 86.399 53.3364C84.6562 53.3364 83.3711 52.1236 83.3711 50.445C83.3711 48.7664 84.6562 47.5537 86.4151 47.5537C87.3548 47.5537 88.1419 47.8669 88.672 48.4693L88.0134 49.1118C87.5716 48.67 87.0656 48.4693 86.4633 48.4693C85.2666 48.4693 84.4233 49.2804 84.4233 50.445C84.4233 51.5855 85.2666 52.4208 86.4552 52.4208C86.8568 52.4208 87.2504 52.3405 87.6118 52.1316ZM92.1453 52.3806H95.3178V53.2561H91.1012V47.634H95.2053V48.5094H92.1453V49.9712H94.86V50.8305H92.1453V52.3806ZM98.7466 53.2561V48.5174H96.8833V47.634H101.654V48.5174H99.7907V53.2561H98.7466ZM106.906 53.2561V47.634H107.95V53.2561H106.906ZM114.555 47.634H115.591V53.2561H114.732L111.631 49.4491V53.2561H110.595V47.634H111.455L114.555 51.4409V47.634ZM119.362 53.2561V48.5174H117.499V47.634H122.27V48.5174H120.406V53.2561H119.362ZM126.726 53.3364C124.983 53.3364 123.698 52.1076 123.698 50.445C123.698 48.7825 124.983 47.5537 126.726 47.5537C128.468 47.5537 129.754 48.7745 129.754 50.445C129.754 52.1156 128.468 53.3364 126.726 53.3364ZM126.726 52.4208C127.858 52.4208 128.701 51.5935 128.701 50.445C128.701 49.2965 127.858 48.4693 126.726 48.4693C125.593 48.4693 124.75 49.2965 124.75 50.445C124.75 51.5935 125.593 52.4208 126.726 52.4208ZM142.549 47.634H143.545L141.682 53.2561H140.573L139.184 49.0957L137.77 53.2561H136.654L134.791 47.634H135.875L137.272 51.9068L138.726 47.634H139.69L141.111 51.9309L142.549 47.634ZM146.564 52.3806H149.737V53.2561H145.52V47.634H149.624V48.5094H146.564V49.9712H149.279V50.8305H146.564V52.3806ZM156.009 50.3326C156.611 50.5253 157.021 50.9992 157.021 51.7301C157.021 52.6939 156.266 53.2561 154.82 53.2561H152.025V47.634H154.659C156.009 47.634 156.731 48.2042 156.731 49.0957C156.731 49.674 156.442 50.0997 156.009 50.3326ZM154.547 48.4532H153.069V50.0033H154.547C155.27 50.0033 155.679 49.7463 155.679 49.2323C155.679 48.7102 155.27 48.4532 154.547 48.4532ZM154.756 52.4368C155.543 52.4368 155.968 52.1879 155.968 51.6257C155.968 51.0634 155.543 50.8145 154.756 50.8145H153.069V52.4368H154.756ZM164.595 49.9551C165.655 50.0916 166.194 50.7261 166.194 51.5694C166.194 52.5172 165.479 53.3364 163.969 53.3364C163.174 53.3364 162.379 53.0954 161.856 52.6858L162.306 51.8746C162.708 52.212 163.318 52.4288 163.953 52.4288C164.7 52.4288 165.141 52.0995 165.141 51.5775C165.141 51.0715 164.772 50.7422 163.921 50.7422H163.407V50.0274L164.684 48.5094H162.13V47.634H165.961V48.3327L164.595 49.9551ZM168.627 53.3123C168.266 53.3123 167.969 53.0312 167.969 52.6457C167.969 52.2441 168.266 51.979 168.627 51.979C168.989 51.979 169.286 52.2441 169.286 52.6457C169.286 53.0312 168.989 53.3123 168.627 53.3123ZM173.337 53.3364C172.004 53.3364 170.992 52.2923 170.992 50.445C170.992 48.5978 172.004 47.5537 173.337 47.5537C174.678 47.5537 175.69 48.5978 175.69 50.445C175.69 52.2923 174.678 53.3364 173.337 53.3364ZM173.337 52.4288C174.108 52.4288 174.638 51.8024 174.638 50.445C174.638 49.0877 174.108 48.4612 173.337 48.4612C172.574 48.4612 172.044 49.0877 172.044 50.445C172.044 51.8024 172.574 52.4288 173.337 52.4288Z" fill="#021342"/>
<path d="M33.6036 30.9459C31.6371 30.7601 30.1554 30.2427 29.0479 29.5897L28.7565 31.6968C28.7389 31.8033 28.7389 31.9119 28.7565 32.0183C28.7906 32.1765 28.8368 32.3318 28.8947 32.4829C29.064 32.9144 29.3524 33.2889 29.7263 33.5628C30.1003 33.8367 30.5443 33.9987 31.0068 34.03C31.2659 34.0488 31.5261 34.0488 31.7853 34.03C31.9168 34.0193 32.0407 33.9644 32.1369 33.8743C32.8324 33.1643 33.328 32.2832 33.5735 31.3201C33.6079 31.1989 33.6348 31.0756 33.6538 30.9509L33.6036 30.9459ZM36.7027 23.8109C36.7203 23.8285 36.7379 23.8486 36.758 23.8662L36.7027 23.8109ZM26.2978 40.1353L25.4239 41.0092V44.0807H28.4878L29.3618 43.2067V40.1453L26.2978 40.1353ZM34.5856 22.8064L34.4876 23.2609C35.2411 23.4016 35.7433 23.4845 35.7584 23.487H35.7835C36.0651 23.5402 36.3429 23.6124 36.6148 23.7029C35.5399 22.6959 34.578 22.8239 34.578 22.8239L34.5856 22.8064Z" fill="#8759F1"/>
<path d="M29.3618 40.1453V43.2067L28.4878 44.0807H25.4239V41.0193L26.2978 40.1453H29.3618Z" fill="#8759F1"/>
<path d="M40.5326 33.5176L40.2539 32.5633L40.1233 32.1162L39.8068 31.0388L39.3849 29.5998C39.2167 29.0222 39.0609 28.4395 38.9429 27.8418C38.7764 27.0014 38.4663 26.196 38.0262 25.4609C38.084 26.7167 37.5691 27.2842 37.5465 27.3093L37.3833 27.4826L37.4612 27.2566C37.5013 27.1411 37.8454 26.1039 37.3582 25.2475C37.0518 24.7075 36.4767 24.3484 35.6454 24.1801C35.5952 24.1801 30.4392 23.3413 28.2919 22.2061C28.228 22.1718 28.156 22.1554 28.0836 22.1585C28.0111 22.1616 27.9408 22.1841 27.88 22.2237C27.3167 22.5829 26.8863 23.1166 26.6546 23.7433C26.4229 24.3699 26.4026 25.0552 26.5967 25.6945C27.0122 26.8575 27.7749 27.8648 28.7816 28.5801L28.862 28.6404C28.9399 28.6957 29.0202 28.7484 29.1131 28.8036C29.1282 28.8143 29.1441 28.8236 29.1609 28.8313C30.2132 29.5094 31.6723 30.0619 33.6814 30.2502H33.7317C33.8916 30.1886 34.0629 30.162 34.234 30.1724C34.2889 30.1642 34.3451 30.1719 34.3958 30.1946C34.4466 30.2173 34.4897 30.254 34.5203 30.3005C34.5981 30.4537 34.4399 30.7098 34.3997 30.7651C34.2425 31.6987 33.901 32.5917 33.3951 33.392C33.5905 33.9696 33.8911 34.506 34.2817 34.9742C35.1111 35.9822 36.2499 36.6884 37.5214 36.9834C37.4586 36.9834 34.1285 36.9683 33.0712 33.8391C32.9214 34.0378 32.7532 34.2219 32.5689 34.3891C32.3669 34.567 32.1117 34.6729 31.8431 34.6905C31.6949 34.6905 31.5417 34.708 31.3885 34.708C31.2353 34.708 31.1047 34.708 30.9616 34.693C30.4827 34.6584 30.018 34.515 29.6029 34.2736C29.407 34.9391 28.965 36.1345 28.1663 36.8151C27.7906 37.1449 27.3101 37.3309 26.8102 37.34H26.667C25.7026 37.2596 23.4649 36.8729 23.4649 35.027C23.4316 33.6404 23.4718 32.2529 23.5855 30.8706C23.6779 30.1254 23.6855 29.3722 23.6081 28.6253V28.5927C23.5483 28.0824 23.5148 27.5694 23.5076 27.0557C23.5076 26.7769 23.5076 26.4504 23.5403 26.0913L22.1238 24.5292L23.593 25.4082C23.6684 24.5719 23.7914 23.6502 23.9371 22.8616L23.9848 22.6105L24.02 22.8742C24.1825 24.508 24.2512 26.1498 24.2259 27.7915C24.2259 27.7915 24.2259 28.3742 24.2385 29.0724C24.2585 30.092 24.2385 31.1569 24.2058 32.2393C24.1782 32.9927 24.1531 33.7135 24.133 34.3589V34.379C24.133 34.7558 24.133 35.0019 24.133 35.022C24.133 36.2777 25.7503 36.5966 26.7172 36.677C27.0865 36.6926 27.4472 36.5628 27.7218 36.3154C28.2417 35.8733 28.6736 35.0596 29.0102 33.8567C28.6746 33.5407 28.4167 33.1513 28.2568 32.719C28.187 32.5332 28.1308 32.3427 28.0885 32.1489C28.052 31.9652 28.0469 31.7767 28.0734 31.5913L28.4074 29.1628C27.2692 28.3611 26.4082 27.2254 25.9437 25.913C25.4188 24.3735 26.0567 22.6205 27.4883 21.6436C27.5962 21.5732 27.7017 21.5104 27.8022 21.4577L27.8725 21.4226C27.948 21.384 28.032 21.3651 28.1168 21.3677C28.2016 21.3703 28.2843 21.3944 28.3572 21.4376L28.425 21.4778C29.746 22.2739 32.7648 22.9319 34.4876 23.2634L34.5856 22.8089V22.4598C34.5848 22.3361 34.5687 22.2129 34.5378 22.0931C34.4897 21.9202 34.4087 21.7582 34.2993 21.6159L33.4403 20.5134C33.3926 20.4456 33.3424 20.3803 33.2922 20.32C33.1274 20.1212 32.9304 19.9514 32.7095 19.8178C31.8406 19.2929 30.9164 19.6193 30.5623 19.7826C30.4668 19.8278 30.4141 19.8579 30.4141 19.8579L29.7033 20.2899L28.8017 20.8499C26.7047 18.5897 24.9869 19.8755 24.9869 19.8755L22.9777 21.3121L22.3499 21.7666L22.2469 21.8395C22.1462 21.9108 22.0405 21.9746 21.9305 22.0303C21.8593 22.0637 21.7864 22.0931 21.712 22.1182C21.5769 22.1647 21.4353 22.1893 21.2926 22.1911C21.121 22.1932 20.954 22.1354 20.8204 22.0278C20.7974 22.0082 20.7756 21.9872 20.7551 21.965C20.6373 21.835 20.572 21.6658 20.5718 21.4904C20.5669 21.4394 20.5669 21.3881 20.5718 21.3372C20.6019 21.1563 20.627 20.973 20.6496 20.7922C20.6798 20.541 20.7049 20.2723 20.7225 20.0187C20.7626 19.4536 20.7752 18.9187 20.7702 18.4566C20.761 17.7844 20.7107 17.1134 20.6195 16.4474C20.6206 16.4257 20.6206 16.4039 20.6195 16.3821C20.5843 16.1184 20.5592 15.8673 20.5416 15.6437C20.5416 15.591 20.5416 15.5408 20.5416 15.4906C20.504 14.9657 20.5115 14.6166 20.5115 14.6166V14.3353C20.5517 12.8284 20.4989 11.1382 20.4512 10.0659C20.396 8.84027 20.3935 7.61469 20.4512 6.39163C20.5115 5.13591 20.6094 4.23431 20.6622 3.80737C20.6936 3.55132 20.6936 3.2924 20.6622 3.03636C20.6083 2.39495 20.3043 1.80048 19.8158 1.38132C19.4284 1.06786 18.9497 0.88841 18.4517 0.869847C17.9536 0.851283 17.463 0.99461 17.0533 1.27835C16.7933 1.44946 16.5683 1.66851 16.3902 1.92379C16.2864 2.0718 16.1949 2.22802 16.1165 2.39092C16.0361 2.54584 15.9664 2.70612 15.908 2.8706C15.7805 3.23537 15.7168 3.61937 15.7197 4.00577C15.7197 5.72107 15.5816 8.49621 15.4058 11.304C15.3832 11.6707 15.3605 12.0398 15.3354 12.404C15.235 13.9385 15.127 15.4453 15.029 16.7538C15.0089 17.0225 14.9889 17.2812 14.9713 17.5323L14.6548 22.3242C14.6443 22.4895 14.5854 22.6481 14.4855 22.7803C14.3856 22.9125 14.2491 23.0125 14.093 23.0678C13.9368 23.1232 13.7678 23.1315 13.607 23.0917C13.4461 23.0519 13.3005 22.9658 13.1882 22.844L9.59681 18.9789L9.27534 18.6324C6.76391 15.8924 4.53627 12.836 4.53627 12.836C3.75019 11.7736 2.30612 10.7766 0.970035 11.5376C0.0885224 12.0398 0.163868 13.0871 0.505423 13.9787C0.615666 14.2721 0.756229 14.5532 0.924831 14.8175L0.977573 14.9004C0.977573 14.9129 1.57529 15.8045 2.44174 17.1607C3.53672 18.8709 5.06618 21.3171 6.39724 23.6452C6.52281 23.8612 6.64839 24.0771 6.76391 24.2906L10.1167 29.5897C9.56213 30.7389 9.14487 31.9494 8.87351 33.1961C8.5194 34.8236 8.39634 36.7548 9.09201 38.44C9.29581 38.9404 9.53848 39.4241 9.81782 39.8866C11.3598 42.4357 13.4745 43.277 15.9005 47.0994H31.7903L32.1068 46.7277C32.2123 46.6047 32.3152 46.4766 32.4207 46.3611L32.5362 46.228L33.1164 45.5599L33.2972 45.354L33.5986 45.0149L33.7769 44.8165L34.0632 44.4976L34.2967 44.2465C34.5253 43.9953 34.7513 43.7442 34.9723 43.5056L35.2461 43.2117L35.4621 42.9782L35.6655 42.7622L35.776 42.6442L35.9267 42.4809C36.2833 42.1042 36.6123 41.7551 36.9086 41.4462L37.1598 41.1951L37.2803 41.0695L37.3808 40.964L37.5842 40.7556L37.7676 40.5672C37.9609 40.3688 38.1543 40.1729 38.3552 39.982L38.5386 39.8138C39.4191 39.0502 40.0713 38.058 40.4232 36.9468C40.7752 35.8357 40.813 34.6489 40.5326 33.5176ZM20.2629 40.532C20.2629 40.7581 20.1732 40.9749 20.0137 41.1349C19.8541 41.295 19.6375 41.3853 19.4115 41.3859H12.9169V39.6857H18.5576V38.5706H12.9169V36.8679H16.777L16.1868 35.8834L16.1064 35.7503H12.9169V34.0475H16.5912C16.7376 34.0482 16.8815 34.0864 17.009 34.1585C17.1365 34.2306 17.2434 34.3342 17.3195 34.4594L18.2964 36.0918L18.761 36.8679H19.409C19.6348 36.8679 19.8513 36.9576 20.011 37.1172C20.1707 37.2769 20.2603 37.4934 20.2603 37.7192L20.2629 40.532ZM22.8697 41.3859H21.167V39.6857H22.8697V41.3859ZM31.062 43.5583C31.0612 43.7845 30.9709 44.0012 30.8109 44.1611L29.4371 45.5348C29.2779 45.6942 29.0622 45.7845 28.8369 45.786H24.5675C24.3414 45.7853 24.1249 45.695 23.9653 45.535C23.8057 45.3749 23.7161 45.1581 23.7161 44.9321V40.6626C23.7159 40.5506 23.7381 40.4395 23.7812 40.3361C23.8243 40.2326 23.8875 40.1387 23.9672 40.0599L25.3385 38.6887C25.4173 38.609 25.5112 38.5457 25.6146 38.5026C25.7181 38.4595 25.8291 38.4374 25.9412 38.4375H30.2106C30.4367 38.4382 30.6532 38.5284 30.8128 38.6885C30.9724 38.8486 31.062 39.0654 31.062 39.2914V43.5583Z" fill="#8759F1"/>
<path d="M36.6148 23.7256C36.3429 23.635 36.0652 23.5629 35.7835 23.5096H35.7584C35.7408 23.5096 35.236 23.4242 34.4876 23.2835L34.5856 22.829C34.5856 22.829 35.5399 22.6959 36.6148 23.7256Z" fill="#8759F1"/>
<path d="M38.0267 25.4643C38.009 25.4314 37.9913 25.401 37.971 25.3705L38.0267 25.4643Z" fill="#606060"/>
<path d="M34.5127 48.3778H12.5126C11.5639 48.3778 10.7948 49.1469 10.7948 50.0956C10.7948 51.0443 11.5639 51.8134 12.5126 51.8134H34.5127C35.4615 51.8134 36.2306 51.0443 36.2306 50.0956C36.2306 49.1469 35.4615 48.3778 34.5127 48.3778Z" fill="#8759F1"/>
<path d="M33.134 6.96424H29.7636V10.3346H33.134V6.96424Z" fill="#8759F1"/>
<path d="M26.3933 6.96424H23.0229V10.3346H26.3933V6.96424Z" fill="#8759F1"/>
<path d="M29.7636 10.3346H26.3933V13.7049H29.7636V10.3346Z" fill="#8759F1"/>
<path d="M33.134 13.7049H29.7636V17.0753H33.134V13.7049Z" fill="#8759F1"/>
</svg>
